<svg width="15" height="15" viewBox="0 0 15 15" fill="none" xmlns="http://www.w3.org/2000/svg">
<path d="M11.2835 0.602363C10.7667 0.668007 10.2078 0.92402 9.77507 1.30476C9.39644 1.63954 2.70143 8.9917 2.57522 9.21489C1.79394 10.5869 2.68941 12.3724 4.15582 12.3724C4.49238 12.3724 4.74479 12.3002 5.08135 12.1098C5.2977 11.9916 5.52608 11.7553 7.6055 9.4906L9.49805 7.42886C9.71939 7.18773 9.71963 6.81741 9.49861 6.57599V6.57599V6.57599C9.28867 6.34667 8.92727 6.34667 8.71733 6.57599L6.84224 8.62409C4.3842 11.2958 4.49839 11.1974 4.12577 11.1908C3.76518 11.1842 3.45267 10.902 3.37454 10.5081C3.33848 10.344 3.33848 10.2783 3.38656 10.0945L3.44666 9.8779L6.96244 6.03771C9.39043 3.38568 10.5323 2.15813 10.6645 2.07279C10.947 1.88243 11.1513 1.81678 11.53 1.79709C11.9506 1.7774 12.2331 1.86273 12.5456 2.08592C13.3089 2.6439 13.5433 3.67452 13.1045 4.6001C12.9904 4.84298 12.7259 5.14495 9.45654 8.72256C5.77248 12.7466 5.75445 12.7662 5.24361 13.0091C5.14145 13.0616 4.92509 13.1339 4.76282 13.1798C4.37218 13.2783 3.68104 13.2586 3.32646 13.1339C2.50912 12.8516 1.88409 12.2542 1.54152 11.4271C1.35522 10.9742 1.30714 10.7181 1.30714 10.1142C1.30714 9.61532 1.31916 9.55624 1.41532 9.22802C1.63768 8.49281 1.57157 8.57814 4.25198 5.64384L6.28933 3.4185C6.50363 3.18444 6.50363 2.82545 6.28933 2.59138V2.59138V2.59138C6.08568 2.36894 5.73526 2.3685 5.53105 2.59043L3.5308 4.76421C2.22064 6.19526 1.09078 7.4425 1.01866 7.54753C0.123192 8.81446 -0.0390751 10.554 0.597973 12.0113C1.14487 13.2586 2.29276 14.1842 3.53681 14.3811C3.96952 14.4533 4.70272 14.4074 5.10539 14.2958C5.48401 14.1842 5.9648 13.9478 6.31938 13.6984C6.50569 13.5605 7.38914 12.6218 10.0996 9.66784C12.0468 7.54753 13.7115 5.70949 13.8017 5.57164C14.012 5.27624 14.2104 4.83642 14.3125 4.44912C14.4147 4.06182 14.4207 3.26096 14.3245 2.88022C13.9579 1.40322 12.6718 0.438252 11.2835 0.602363Z" fill="#AAAAAA"/>
</svg>
