<svg width="19" height="18" viewBox="0 0 19 18" fill="none" xmlns="http://www.w3.org/2000/svg">
<path fill-rule="evenodd" clip-rule="evenodd" d="M0 1.5C0 0.947715 0.447754 0.5 1 0.5H18C18.5522 0.5 19 0.947715 19 1.5C19 2.05229 18.5522 2.5 18 2.5H1C0.447754 2.5 0 2.05229 0 1.5ZM2 4.5C0.895386 4.5 0 5.39543 0 6.5V11.5C0 12.6046 0.895386 13.5 2 13.5H17C18.1046 13.5 19 12.6046 19 11.5V6.5C19 5.39543 18.1046 4.5 17 4.5H2ZM3 6.5C2.44775 6.5 2 6.94772 2 7.5V10.5C2 11.0523 2.44775 11.5 3 11.5H16C16.5522 11.5 17 11.0523 17 10.5V7.5C17 6.94772 16.5522 6.5 16 6.5H3ZM1 15.5C0.447754 15.5 0 15.9477 0 16.5C0 17.0523 0.447754 17.5 1 17.5H18C18.5522 17.5 19 17.0523 19 16.5C19 15.9477 18.5522 15.5 18 15.5H1Z" fill="#AAAAAA"/>
</svg>
