<svg width="14" height="15" viewBox="0 0 14 15" fill="none" xmlns="http://www.w3.org/2000/svg">
<path fill-rule="evenodd" clip-rule="evenodd" d="M1.82906 0.914466C1.08477 0.542318 0.238071 1.18902 0.401269 2.00501L1.50028 7.50008L0.401269 12.9951C0.238071 13.8111 1.08477 14.4578 1.82906 14.0857L13.2114 8.3945C13.9485 8.02598 13.9485 6.97417 13.2114 6.60565L1.82906 0.914466ZM1.85336 2.16894C1.70613 2.09853 1.5411 2.22458 1.57029 2.38514L2.50028 7.50008L1.57029 12.615C1.5411 12.7756 1.70613 12.9016 1.85336 12.8312L12.623 7.6805C12.7746 7.60799 12.7746 7.39216 12.623 7.31965L1.85336 2.16894Z" fill="#D9D9D9"/>
<path d="M2.00049 7H7.50049C7.77663 7 8.00049 7.22386 8.00049 7.5V7.5C8.00049 7.77614 7.77663 8 7.50049 8H2.00049V7Z" fill="#D9D9D9"/>
</svg>
